<svg width="177" height="60" viewBox="0 0 177 60" fill="none" xmlns="http://www.w3.org/2000/svg">
<path d="M24.576 22.992C27.264 22.992 29.408 23.824 31.008 25.488C32.64 27.12 33.456 29.52 33.456 32.688C33.456 35.152 33.056 37.6 32.256 40.032C31.488 42.432 30.256 44.448 28.56 46.08C26.864 47.68 24.736 48.48 22.176 48.48C20.768 48.48 19.52 48.192 18.432 47.616C17.376 47.04 16.656 46.32 16.272 45.456L14.688 56.688H5.232L9.84 23.472H17.424L17.904 26.304C18.864 25.312 19.872 24.512 20.928 23.904C21.984 23.296 23.2 22.992 24.576 22.992ZM21.6 28.8C20.736 28.8 19.968 29.12 19.296 29.76C18.656 30.4 18.272 31.2 18.144 32.16C17.472 36.896 17.136 39.392 17.136 39.648C17.136 40.48 17.376 41.168 17.856 41.712C18.336 42.224 18.944 42.48 19.68 42.48C20.672 42.48 21.456 42.176 22.032 41.568C22.608 40.928 22.976 40.112 23.136 39.12L23.616 35.664L23.808 34.128C24.032 32.72 24.144 31.872 24.144 31.584C24.144 30.688 23.904 30 23.424 29.52C22.976 29.04 22.368 28.8 21.6 28.8ZM49.4224 13.44L48.4624 20.304H39.0064L39.9664 13.44H49.4224ZM48.0304 23.472L44.5744 48H35.1664L38.5744 23.472H48.0304ZM64.5855 22.992C68.5855 22.992 71.3695 23.872 72.9375 25.632C74.5055 27.392 75.2895 29.408 75.2895 31.68C75.2895 32.256 75.2415 32.832 75.1455 33.408H67.0815C67.0815 33.152 67.0975 32.848 67.1295 32.496C67.1935 32.144 67.2255 31.888 67.2255 31.728C67.2255 30.896 66.9535 30.208 66.4095 29.664C65.8975 29.088 65.2255 28.8 64.3935 28.8C63.3055 28.8 62.4255 29.12 61.7535 29.76C61.1135 30.368 60.7295 31.168 60.6015 32.16C60.3135 33.728 60.0575 35.296 59.8335 36.864C59.6415 38.4 59.5455 39.376 59.5455 39.792C59.5455 40.656 59.8175 41.36 60.3615 41.904C60.9375 42.416 61.7375 42.672 62.7615 42.672C63.9775 42.672 64.9055 42.336 65.5455 41.664C66.2175 40.992 66.6175 40.208 66.7455 39.312L66.9375 38.064H74.5215C74.0095 41.36 72.6015 43.92 70.2975 45.744C68.0255 47.568 65.1295 48.48 61.6095 48.48C58.9855 48.48 56.7775 48.032 54.9855 47.136C53.2255 46.208 51.8975 44.992 51.0015 43.488C50.1375 41.984 49.7055 40.32 49.7055 38.496C49.7055 35.616 50.2815 33.008 51.4335 30.672C52.5855 28.304 54.2815 26.432 56.5215 25.056C58.7615 23.68 61.4495 22.992 64.5855 22.992ZM109.435 22.992C111.643 22.992 113.339 23.568 114.523 24.72C115.707 25.872 116.299 27.36 116.299 29.184C116.299 29.888 116.027 32.096 115.483 35.808L115.003 39.168L114.571 42.192C114.187 45.072 113.915 47.008 113.755 48H104.443C104.731 45.76 105.195 42.528 105.835 38.304C106.379 34.592 106.651 32.48 106.651 31.968C106.651 31.328 106.459 30.816 106.075 30.432C105.723 30.016 105.259 29.808 104.683 29.808C103.979 29.808 103.371 30.048 102.859 30.528C102.379 31.008 102.091 31.648 101.995 32.448L99.8348 48H90.5228C90.8108 45.76 91.2748 42.528 91.9148 38.304C92.4588 34.592 92.7308 32.48 92.7308 31.968C92.7308 31.328 92.5388 30.816 92.1548 30.432C91.8028 30.016 91.3388 29.808 90.7628 29.808C90.0588 29.808 89.4508 30.048 88.9388 30.528C88.4588 31.008 88.1708 31.648 88.0748 32.448L85.9148 48H76.6028L80.0588 23.472H87.1628L87.6428 27.024C88.2828 26.096 89.2908 25.2 90.6668 24.336C92.0428 23.44 93.6588 22.992 95.5148 22.992C97.2428 22.992 98.6188 23.312 99.6428 23.952C100.667 24.592 101.419 25.52 101.899 26.736C102.763 25.552 103.787 24.64 104.971 24C106.187 23.328 107.675 22.992 109.435 22.992ZM134.258 22.992C138.034 22.992 140.946 23.936 142.994 25.824C145.074 27.68 146.114 30.192 146.114 33.36C146.114 36.24 145.49 38.832 144.242 41.136C142.994 43.44 141.25 45.248 139.01 46.56C136.77 47.84 134.226 48.48 131.378 48.48H130.658C126.818 48.48 123.858 47.552 121.778 45.696C119.73 43.808 118.706 41.296 118.706 38.16C118.706 35.632 119.25 33.216 120.338 30.912C121.426 28.576 123.074 26.672 125.282 25.2C127.522 23.728 130.242 22.992 133.442 22.992H134.258ZM133.394 28.8C132.434 28.8 131.602 29.12 130.898 29.76C130.194 30.4 129.762 31.2 129.602 32.16C129.314 33.92 129.074 35.488 128.882 36.864C128.69 38.208 128.578 39.184 128.546 39.792C128.546 40.624 128.818 41.312 129.362 41.856C129.906 42.4 130.594 42.672 131.426 42.672C132.418 42.672 133.25 42.352 133.922 41.712C134.626 41.072 135.058 40.272 135.218 39.312L135.746 35.808L136.274 31.728C136.274 30.96 136.002 30.288 135.458 29.712C134.946 29.104 134.258 28.8 133.394 28.8ZM162.159 13.44L161.199 20.304H151.647L152.607 13.44H162.159ZM157.119 49.248C156.767 51.776 155.711 53.696 153.951 55.008C152.191 56.32 149.967 56.976 147.279 56.976C146.383 56.976 145.311 56.864 144.063 56.64C142.783 56.448 141.775 56.208 141.039 55.92L141.807 50.544C142.159 50.704 142.639 50.832 143.247 50.928C143.823 51.056 144.303 51.12 144.687 51.12C145.487 51.12 146.175 50.88 146.751 50.4C147.295 49.952 147.647 49.088 147.807 47.808L151.215 23.472H160.767L157.119 49.248ZM176.36 13.44L175.4 20.304H165.944L166.904 13.44H176.36ZM174.968 23.472L171.512 48H162.104L165.512 23.472H174.968Z" fill="black"/>
<path d="M20.576 19.992C23.264 19.992 25.408 20.824 27.008 22.488C28.64 24.12 29.456 26.52 29.456 29.688C29.456 32.152 29.056 34.6 28.256 37.032C27.488 39.432 26.256 41.448 24.56 43.08C22.864 44.68 20.736 45.48 18.176 45.48C16.768 45.48 15.52 45.192 14.432 44.616C13.376 44.04 12.656 43.32 12.272 42.456L10.688 53.688H1.232L5.84 20.472H13.424L13.904 23.304C14.864 22.312 15.872 21.512 16.928 20.904C17.984 20.296 19.2 19.992 20.576 19.992ZM17.6 25.8C16.736 25.8 15.968 26.12 15.296 26.76C14.656 27.4 14.272 28.2 14.144 29.16C13.472 33.896 13.136 36.392 13.136 36.648C13.136 37.48 13.376 38.168 13.856 38.712C14.336 39.224 14.944 39.48 15.68 39.48C16.672 39.48 17.456 39.176 18.032 38.568C18.608 37.928 18.976 37.112 19.136 36.12L19.616 32.664L19.808 31.128C20.032 29.72 20.144 28.872 20.144 28.584C20.144 27.688 19.904 27 19.424 26.52C18.976 26.04 18.368 25.8 17.6 25.8ZM45.4224 10.44L44.4624 17.304H35.0064L35.9664 10.44H45.4224ZM44.0304 20.472L40.5744 45H31.1664L34.5744 20.472H44.0304ZM60.5855 19.992C64.5855 19.992 67.3695 20.872 68.9375 22.632C70.5055 24.392 71.2895 26.408 71.2895 28.68C71.2895 29.256 71.2415 29.832 71.1455 30.408H63.0815C63.0815 30.152 63.0975 29.848 63.1295 29.496C63.1935 29.144 63.2255 28.888 63.2255 28.728C63.2255 27.896 62.9535 27.208 62.4095 26.664C61.8975 26.088 61.2255 25.8 60.3935 25.8C59.3055 25.8 58.4255 26.12 57.7535 26.76C57.1135 27.368 56.7295 28.168 56.6015 29.16C56.3135 30.728 56.0575 32.296 55.8335 33.864C55.6415 35.4 55.5455 36.376 55.5455 36.792C55.5455 37.656 55.8175 38.36 56.3615 38.904C56.9375 39.416 57.7375 39.672 58.7615 39.672C59.9775 39.672 60.9055 39.336 61.5455 38.664C62.2175 37.992 62.6175 37.208 62.7455 36.312L62.9375 35.064H70.5215C70.0095 38.36 68.6015 40.92 66.2975 42.744C64.0255 44.568 61.1295 45.48 57.6095 45.48C54.9855 45.48 52.7775 45.032 50.9855 44.136C49.2255 43.208 47.8975 41.992 47.0015 40.488C46.1375 38.984 45.7055 37.32 45.7055 35.496C45.7055 32.616 46.2815 30.008 47.4335 27.672C48.5855 25.304 50.2815 23.432 52.5215 22.056C54.7615 20.68 57.4495 19.992 60.5855 19.992ZM105.435 19.992C107.643 19.992 109.339 20.568 110.523 21.72C111.707 22.872 112.299 24.36 112.299 26.184C112.299 26.888 112.027 29.096 111.483 32.808L111.003 36.168L110.571 39.192C110.187 42.072 109.915 44.008 109.755 45H100.443C100.731 42.76 101.195 39.528 101.835 35.304C102.379 31.592 102.651 29.48 102.651 28.968C102.651 28.328 102.459 27.816 102.075 27.432C101.723 27.016 101.259 26.808 100.683 26.808C99.9788 26.808 99.3708 27.048 98.8588 27.528C98.3788 28.008 98.0908 28.648 97.9948 29.448L95.8348 45H86.5228C86.8108 42.76 87.2748 39.528 87.9148 35.304C88.4588 31.592 88.7308 29.48 88.7308 28.968C88.7308 28.328 88.5388 27.816 88.1548 27.432C87.8028 27.016 87.3388 26.808 86.7628 26.808C86.0588 26.808 85.4508 27.048 84.9388 27.528C84.4588 28.008 84.1708 28.648 84.0748 29.448L81.9148 45H72.6028L76.0588 20.472H83.1628L83.6428 24.024C84.2828 23.096 85.2908 22.2 86.6668 21.336C88.0428 20.44 89.6588 19.992 91.5148 19.992C93.2428 19.992 94.6188 20.312 95.6428 20.952C96.6668 21.592 97.4188 22.52 97.8988 23.736C98.7628 22.552 99.7868 21.64 100.971 21C102.187 20.328 103.675 19.992 105.435 19.992ZM130.258 19.992C134.034 19.992 136.946 20.936 138.994 22.824C141.074 24.68 142.114 27.192 142.114 30.36C142.114 33.24 141.49 35.832 140.242 38.136C138.994 40.44 137.25 42.248 135.01 43.56C132.77 44.84 130.226 45.48 127.378 45.48H126.658C122.818 45.48 119.858 44.552 117.778 42.696C115.73 40.808 114.706 38.296 114.706 35.16C114.706 32.632 115.25 30.216 116.338 27.912C117.426 25.576 119.074 23.672 121.282 22.2C123.522 20.728 126.242 19.992 129.442 19.992H130.258ZM129.394 25.8C128.434 25.8 127.602 26.12 126.898 26.76C126.194 27.4 125.762 28.2 125.602 29.16C125.314 30.92 125.074 32.488 124.882 33.864C124.69 35.208 124.578 36.184 124.546 36.792C124.546 37.624 124.818 38.312 125.362 38.856C125.906 39.4 126.594 39.672 127.426 39.672C128.418 39.672 129.25 39.352 129.922 38.712C130.626 38.072 131.058 37.272 131.218 36.312L131.746 32.808L132.274 28.728C132.274 27.96 132.002 27.288 131.458 26.712C130.946 26.104 130.258 25.8 129.394 25.8ZM158.159 10.44L157.199 17.304H147.647L148.607 10.44H158.159ZM153.119 46.248C152.767 48.776 151.711 50.696 149.951 52.008C148.191 53.32 145.967 53.976 143.279 53.976C142.383 53.976 141.311 53.864 140.063 53.64C138.783 53.448 137.775 53.208 137.039 52.92L137.807 47.544C138.159 47.704 138.639 47.832 139.247 47.928C139.823 48.056 140.303 48.12 140.687 48.12C141.487 48.12 142.175 47.88 142.751 47.4C143.295 46.952 143.647 46.088 143.807 44.808L147.215 20.472H156.767L153.119 46.248ZM172.36 10.44L171.4 17.304H161.944L162.904 10.44H172.36ZM170.968 20.472L167.512 45H158.104L161.512 20.472H170.968Z" fill="white"/>
<path d="M27.008 22.488L26.2872 23.1811L26.294 23.1882L26.3009 23.1951L27.008 22.488ZM28.256 37.032L27.306 36.7195L27.3036 36.7272L28.256 37.032ZM24.56 43.08L25.2463 43.8074L25.2534 43.8006L24.56 43.08ZM14.432 44.616L13.9531 45.494L13.9641 45.4998L14.432 44.616ZM12.272 42.456L13.1858 42.0499L11.769 38.8619L11.2818 42.3164L12.272 42.456ZM10.688 53.688V54.688H11.5569L11.6782 53.8276L10.688 53.688ZM1.232 53.688L0.241486 53.5506L0.0836947 54.688H1.232V53.688ZM5.84 20.472V19.472H4.96915L4.84949 20.3346L5.84 20.472ZM13.424 20.472L14.4099 20.3049L14.2688 19.472H13.424V20.472ZM13.904 23.304L12.9181 23.4711L13.2483 25.4195L14.6226 23.9994L13.904 23.304ZM16.928 20.904L16.429 20.0374L16.429 20.0374L16.928 20.904ZM15.296 26.76L14.6063 26.0359L14.5975 26.0443L14.5889 26.0529L15.296 26.76ZM14.144 29.16L15.1341 29.3005L15.1352 29.2922L14.144 29.16ZM13.856 38.712L13.1062 39.3736L13.1161 39.3849L13.1265 39.3959L13.856 38.712ZM18.032 38.568L18.758 39.2557L18.7667 39.2465L18.7753 39.237L18.032 38.568ZM19.136 36.12L20.1232 36.2792L20.125 36.2684L20.1265 36.2576L19.136 36.12ZM19.616 32.664L20.6066 32.8016L20.6083 32.788L19.616 32.664ZM19.808 31.128L18.8204 30.9709L18.8178 30.9874L18.8157 31.004L19.808 31.128ZM19.424 26.52L18.6929 27.2023L18.7047 27.2149L18.7169 27.2271L19.424 26.52ZM20.576 20.992C23.0406 20.992 24.9069 21.7457 26.2872 23.1811L27.7288 21.7949C25.9091 19.9023 23.4874 18.992 20.576 18.992V20.992ZM26.3009 23.1951C27.6843 24.5785 28.456 26.6842 28.456 29.688H30.456C30.456 26.3558 29.5957 23.6615 27.7151 21.7809L26.3009 23.1951ZM28.456 29.688C28.456 32.0417 28.0742 34.3844 27.3061 36.7195L29.2059 37.3445C30.0378 34.8156 30.456 32.2623 30.456 29.688H28.456ZM27.3036 36.7272C26.5824 38.9808 25.4347 40.8505 23.8666 42.3594L25.2534 43.8006C27.0773 42.0455 28.3936 39.8832 29.2084 37.3368L27.3036 36.7272ZM23.8738 42.3526C22.3823 43.7597 20.5081 44.48 18.176 44.48V46.48C20.9639 46.48 23.3457 45.6003 25.2462 43.8074L23.8738 42.3526ZM18.176 44.48C16.9075 44.48 15.8242 44.2216 14.8999 43.7322L13.9641 45.4998C15.2158 46.1624 16.6285 46.48 18.176 46.48V44.48ZM14.9109 43.7381C13.9946 43.2383 13.4588 42.6641 13.1858 42.0499L11.3582 42.8621C11.8532 43.9759 12.7574 44.8417 13.9531 45.4939L14.9109 43.7381ZM11.2818 42.3164L9.6978 53.5484L11.6782 53.8276L13.2622 42.5956L11.2818 42.3164ZM10.688 52.688H1.232V54.688H10.688V52.688ZM2.22251 53.8254L6.83051 20.6094L4.84949 20.3346L0.241486 53.5506L2.22251 53.8254ZM5.84 21.472H13.424V19.472H5.84V21.472ZM12.4381 20.6391L12.9181 23.4711L14.8899 23.1369L14.4099 20.3049L12.4381 20.6391ZM14.6226 23.9994C15.5262 23.0657 16.4617 22.3264 17.427 21.7706L16.429 20.0374C15.2823 20.6976 14.2018 21.5583 13.1854 22.6086L14.6226 23.9994ZM17.427 21.7706C18.3124 21.2608 19.3521 20.992 20.576 20.992V18.992C19.0479 18.992 17.6556 19.3312 16.429 20.0374L17.427 21.7706ZM17.6 24.8C16.4591 24.8 15.4492 25.2332 14.6063 26.0359L15.9857 27.4841C16.4868 27.0068 17.0129 26.8 17.6 26.8V24.8ZM14.5889 26.0529C13.7824 26.8594 13.3076 27.8664 13.1528 29.0278L15.1352 29.2922C15.2364 28.5336 15.5296 27.9406 16.0031 27.4671L14.5889 26.0529ZM13.1539 29.0195C12.8178 31.3882 12.5654 33.199 12.3969 34.4506C12.3128 35.076 12.2491 35.5647 12.2064 35.9148C12.1686 36.2245 12.136 36.5068 12.136 36.648H14.136C14.136 36.6612 14.1454 36.5355 14.1916 36.1572C14.2329 35.8193 14.2952 35.34 14.3791 34.7174C14.5466 33.473 14.7982 31.6678 15.1341 29.3005L13.1539 29.0195ZM12.136 36.648C12.136 37.6855 12.4414 38.6202 13.1062 39.3736L14.6058 38.0504C14.3106 37.7158 14.136 37.2745 14.136 36.648H12.136ZM13.1265 39.3959C13.8056 40.1204 14.6827 40.48 15.68 40.48V38.48C15.2053 38.48 14.8664 38.3276 14.5855 38.0281L13.1265 39.3959ZM15.68 40.48C16.8917 40.48 17.9584 40.0997 18.758 39.2557L17.306 37.8803C16.9536 38.2523 16.4523 38.48 15.68 38.48V40.48ZM18.7753 39.237C19.5002 38.4315 19.9378 37.4287 20.1232 36.2792L18.1488 35.9608C18.0142 36.7953 17.7158 37.4245 17.2887 37.899L18.7753 39.237ZM20.1265 36.2576L20.6065 32.8016L18.6255 32.5264L18.1455 35.9824L20.1265 36.2576ZM20.6083 32.788L20.8003 31.252L18.8157 31.004L18.6237 32.54L20.6083 32.788ZM20.7956 31.2851C21.0132 29.9173 21.144 28.9715 21.144 28.584H19.144C19.144 28.7725 19.0508 29.5227 18.8204 30.9709L20.7956 31.2851ZM21.144 28.584C21.144 27.5108 20.8528 26.5346 20.1311 25.8129L18.7169 27.2271C18.9552 27.4654 19.144 27.8652 19.144 28.584H21.144ZM20.1551 25.8377C19.4856 25.1204 18.5939 24.8 17.6 24.8V26.8C18.1421 26.8 18.4664 26.9596 18.6929 27.2023L20.1551 25.8377ZM45.4224 10.44L46.4127 10.5785L46.572 9.44H45.4224V10.44ZM44.4624 17.304V18.304H45.3322L45.4527 17.4425L44.4624 17.304ZM35.0064 17.304L34.016 17.1655L33.8568 18.304H35.0064V17.304ZM35.9664 10.44V9.44H35.0965L34.976 10.3015L35.9664 10.44ZM44.0304 20.472L45.0206 20.6115L45.1812 19.472H44.0304V20.472ZM40.5744 45V46H41.4434L41.5646 45.1395L40.5744 45ZM31.1664 45L30.1759 44.8624L30.0178 46H31.1664V45ZM34.5744 20.472V19.472H33.7037L33.5839 20.3344L34.5744 20.472ZM44.432 10.3015L43.472 17.1655L45.4527 17.4425L46.4127 10.5785L44.432 10.3015ZM44.4624 16.304H35.0064V18.304H44.4624V16.304ZM35.9967 17.4425L36.9567 10.5785L34.976 10.3015L34.016 17.1655L35.9967 17.4425ZM35.9664 11.44H45.4224V9.44H35.9664V11.44ZM43.0402 20.3325L39.5842 44.8605L41.5646 45.1395L45.0206 20.6115L43.0402 20.3325ZM40.5744 44H31.1664V46H40.5744V44ZM32.1569 45.1376L35.5649 20.6096L33.5839 20.3344L30.1759 44.8624L32.1569 45.1376ZM34.5744 21.472H44.0304V19.472H34.5744V21.472ZM68.9375 22.632L68.1908 23.2972L68.1908 23.2972L68.9375 22.632ZM71.1455 30.408V31.408H71.9926L72.1319 30.5724L71.1455 30.408ZM63.0815 30.408H62.0815V31.408H63.0815V30.408ZM63.1295 29.496L62.1456 29.3171L62.1376 29.361L62.1336 29.4055L63.1295 29.496ZM62.4095 26.664L61.6621 27.3284L61.6816 27.3503L61.7024 27.3711L62.4095 26.664ZM57.7535 26.76L58.4423 27.485L58.4432 27.4841L57.7535 26.76ZM56.6015 29.16L57.585 29.3407L57.5899 29.3144L57.5933 29.288L56.6015 29.16ZM55.8335 33.864L54.8436 33.7226L54.8423 33.7313L54.8412 33.74L55.8335 33.864ZM56.3615 38.904L55.6544 39.6111L55.6752 39.6319L55.6971 39.6514L56.3615 38.904ZM61.5455 38.664L60.8384 37.9569L60.8298 37.9655L60.8214 37.9743L61.5455 38.664ZM62.7455 36.312L61.7571 36.1599L61.7556 36.1706L62.7455 36.312ZM62.9375 35.064V34.064H62.0796L61.9491 34.9119L62.9375 35.064ZM70.5215 35.064L71.5097 35.2175L71.6888 34.064H70.5215V35.064ZM66.2975 42.744L65.6768 41.9599L65.6715 41.9642L66.2975 42.744ZM50.9855 44.136L50.5191 45.0206L50.5286 45.0256L50.5383 45.0304L50.9855 44.136ZM47.0015 40.488L46.1344 40.9861L46.1383 40.993L46.1424 40.9998L47.0015 40.488ZM47.4335 27.672L48.3304 28.1143L48.3327 28.1095L47.4335 27.672ZM52.5215 22.056L53.0449 22.9081L53.0449 22.9081L52.5215 22.056ZM60.5855 20.992C64.4901 20.992 66.9101 21.8596 68.1908 23.2972L69.6842 21.9668C67.8289 19.8844 64.6809 18.992 60.5855 18.992V20.992ZM68.1908 23.2972C69.6024 24.8816 70.2895 26.6632 70.2895 28.68H72.2895C72.2895 26.1528 71.4086 23.9024 69.6842 21.9668L68.1908 23.2972ZM70.2895 28.68C70.2895 29.2002 70.2462 29.7212 70.1591 30.2436L72.1319 30.5724C72.2368 29.9428 72.2895 29.3118 72.2895 28.68H70.2895ZM71.1455 29.408H63.0815V31.408H71.1455V29.408ZM64.0815 30.408C64.0815 30.1911 64.0952 29.9188 64.1254 29.5865L62.1336 29.4055C62.0998 29.7772 62.0815 30.1129 62.0815 30.408H64.0815ZM64.1134 29.6749C64.1783 29.3179 64.2255 28.9853 64.2255 28.728H62.2255C62.2255 28.7907 62.2087 28.9701 62.1456 29.3171L64.1134 29.6749ZM64.2255 28.728C64.2255 27.6546 63.8644 26.7046 63.1166 25.9569L61.7024 27.3711C62.0426 27.7114 62.2255 28.1374 62.2255 28.728H64.2255ZM63.1569 25.9996C62.4388 25.1917 61.4855 24.8 60.3935 24.8V26.8C60.9655 26.8 61.3562 26.9843 61.6621 27.3284L63.1569 25.9996ZM60.3935 24.8C59.0961 24.8 57.9535 25.1886 57.0638 26.0359L58.4432 27.4841C58.8975 27.0514 59.5149 26.8 60.3935 26.8V24.8ZM57.0648 26.035C56.2361 26.8222 55.763 27.8442 55.6097 29.032L57.5933 29.288C57.696 28.4918 57.9909 27.9138 58.4423 27.485L57.0648 26.035ZM55.618 28.9793C55.3276 30.5603 55.0694 32.1414 54.8436 33.7226L56.8235 34.0054C57.0456 32.4506 57.2994 30.8957 57.585 29.3407L55.618 28.9793ZM54.8412 33.74C54.6517 35.2559 54.5455 36.3004 54.5455 36.792H56.5455C56.5455 36.4516 56.6313 35.5441 56.8258 33.988L54.8412 33.74ZM54.5455 36.792C54.5455 37.8856 54.8991 38.8558 55.6544 39.6111L57.0686 38.1969C56.7359 37.8642 56.5455 37.4264 56.5455 36.792H54.5455ZM55.6971 39.6514C56.5093 40.3733 57.5744 40.672 58.7615 40.672V38.672C57.9006 38.672 57.3657 38.4587 57.0259 38.1566L55.6971 39.6514ZM58.7615 40.672C60.1622 40.672 61.3873 40.2802 62.2696 39.3537L60.8214 37.9743C60.4237 38.3918 59.7928 38.672 58.7615 38.672V40.672ZM62.2526 39.3711C63.0694 38.5543 63.5753 37.5748 63.7355 36.4534L61.7556 36.1706C61.6597 36.8412 61.3656 37.4297 60.8384 37.9569L62.2526 39.3711ZM63.7339 36.4641L63.9259 35.2161L61.9491 34.9119L61.7571 36.1599L63.7339 36.4641ZM62.9375 36.064H70.5215V34.064H62.9375V36.064ZM69.5334 34.9105C69.0544 37.9937 67.7563 40.3137 65.6768 41.96L66.9182 43.528C69.4467 41.5263 70.9646 38.7263 71.5097 35.2175L69.5334 34.9105ZM65.6715 41.9642C63.6118 43.6177 60.9509 44.48 57.6095 44.48V46.48C61.3081 46.48 64.4392 45.5183 66.9235 43.5238L65.6715 41.9642ZM57.6095 44.48C55.0945 44.48 53.0497 44.0501 51.4327 43.2416L50.5383 45.0304C52.5053 46.0139 54.8765 46.48 57.6095 46.48V44.48ZM51.4519 43.2514C49.8319 42.3972 48.6501 41.3015 47.8606 39.9762L46.1424 40.9998C47.1449 42.6825 48.6191 44.0188 50.5191 45.0206L51.4519 43.2514ZM47.8686 39.9899C47.0962 38.6454 46.7055 37.1546 46.7055 35.496H44.7055C44.7055 37.4854 45.1788 39.3226 46.1344 40.9861L47.8686 39.9899ZM46.7055 35.496C46.7055 32.753 47.2531 30.2987 48.3304 28.1143L46.5366 27.2297C45.3099 29.7173 44.7055 32.479 44.7055 35.496H46.7055ZM48.3327 28.1095C49.4016 25.9123 50.9674 24.1843 53.0449 22.9081L51.9981 21.2039C49.5956 22.6797 47.7694 24.6957 46.5343 27.2345L48.3327 28.1095ZM53.0449 22.9081C55.0994 21.646 57.5983 20.992 60.5855 20.992V18.992C57.3007 18.992 54.4236 19.714 51.9981 21.2039L53.0449 22.9081ZM110.523 21.72L109.825 22.4367L109.825 22.4367L110.523 21.72ZM111.483 32.808L110.493 32.663L110.493 32.6666L111.483 32.808ZM111.003 36.168L111.993 36.3094L111.993 36.3094L111.003 36.168ZM110.571 39.192L109.581 39.0506L109.58 39.0598L110.571 39.192ZM109.755 45V46H110.606L110.742 45.1592L109.755 45ZM100.443 45L99.4509 44.8725L99.3059 46H100.443V45ZM101.835 35.304L102.823 35.4538L102.824 35.449L101.835 35.304ZM102.075 27.432L101.311 28.0779L101.338 28.1097L101.368 28.1391L102.075 27.432ZM98.8588 27.528L98.1748 26.7985L98.163 26.8095L98.1516 26.8209L98.8588 27.528ZM97.9948 29.448L98.9852 29.5856L98.9865 29.5764L98.9876 29.5671L97.9948 29.448ZM95.8348 45V46H96.7055L96.8252 45.1376L95.8348 45ZM86.5228 45L85.5309 44.8725L85.3859 46H86.5228V45ZM87.9148 35.304L88.9035 35.4538L88.9042 35.449L87.9148 35.304ZM88.1548 27.432L87.3914 28.0779L87.4182 28.1097L87.4476 28.1391L88.1548 27.432ZM84.9388 27.528L84.2548 26.7985L84.243 26.8095L84.2316 26.8209L84.9388 27.528ZM84.0748 29.448L85.0652 29.5856L85.0665 29.5764L85.0676 29.5671L84.0748 29.448ZM81.9148 45V46H82.7855L82.9052 45.1376L81.9148 45ZM72.6028 45L71.6125 44.8605L71.452 46H72.6028V45ZM76.0588 20.472V19.472H75.1898L75.0685 20.3325L76.0588 20.472ZM83.1628 20.472L84.1537 20.3381L84.0367 19.472H83.1628V20.472ZM83.6428 24.024L82.6518 24.1579L82.998 26.7203L84.466 24.5917L83.6428 24.024ZM86.6668 21.336L87.1985 22.1829L87.2055 22.1785L87.2124 22.174L86.6668 21.336ZM95.6428 20.952L96.1728 20.104L96.1728 20.104L95.6428 20.952ZM97.8988 23.736L96.9686 24.1032L97.6356 25.793L98.7065 24.3255L97.8988 23.736ZM100.971 21L101.446 21.8797L101.454 21.8752L100.971 21ZM105.435 20.992C107.472 20.992 108.884 21.5208 109.825 22.4367L111.22 21.0033C109.794 19.6152 107.813 18.992 105.435 18.992V20.992ZM109.825 22.4367C110.795 23.3799 111.299 24.599 111.299 26.184H113.299C113.299 24.121 112.619 22.3641 111.22 21.0033L109.825 22.4367ZM111.299 26.184C111.299 26.7957 111.043 28.9106 110.493 32.663L112.472 32.953C113.01 29.2814 113.299 26.9803 113.299 26.184H111.299ZM110.493 32.6666L110.013 36.0266L111.993 36.3094L112.473 32.9494L110.493 32.6666ZM110.013 36.0266L109.581 39.0506L111.561 39.3334L111.993 36.3094L110.013 36.0266ZM109.58 39.0598C109.195 41.9417 108.925 43.8644 108.768 44.8408L110.742 45.1592C110.905 44.1516 111.178 42.2023 111.562 39.3242L109.58 39.0598ZM109.755 44H100.443V46H109.755V44ZM101.435 45.1275C101.721 42.8988 102.184 39.6757 102.823 35.4538L100.846 35.1542C100.206 39.3803 99.7404 42.6212 99.4509 44.8725L101.435 45.1275ZM102.824 35.449C103.096 33.5909 103.301 32.1282 103.439 31.0637C103.571 30.0333 103.651 29.3031 103.651 28.968H101.651C101.651 29.1449 101.594 29.7267 101.455 30.8083C101.32 31.8558 101.117 33.3051 100.845 35.159L102.824 35.449ZM103.651 28.968C103.651 28.1137 103.387 27.3296 102.782 26.7249L101.368 28.1391C101.531 28.3024 101.651 28.5423 101.651 28.968H103.651ZM102.838 26.7861C102.284 26.1313 101.534 25.808 100.683 25.808V27.808C100.984 27.808 101.161 27.9007 101.311 28.0779L102.838 26.7861ZM100.683 25.808C99.7256 25.808 98.8728 26.1441 98.1748 26.7985L99.5427 28.2575C99.8687 27.9519 100.232 27.808 100.683 27.808V25.808ZM98.1516 26.8209C97.485 27.4876 97.1194 28.3496 97.0019 29.3289L98.9876 29.5671C99.0621 28.9464 99.2725 28.5284 99.5659 28.2351L98.1516 26.8209ZM97.0043 29.3104L94.8443 44.8624L96.8252 45.1376L98.9852 29.5856L97.0043 29.3104ZM95.8348 44H86.5228V46H95.8348V44ZM87.5146 45.1275C87.8011 42.8988 88.2638 39.6757 88.9035 35.4538L86.926 35.1542C86.2857 39.3803 85.8204 42.6212 85.5309 44.8725L87.5146 45.1275ZM88.9042 35.449C89.1765 33.5909 89.3815 32.1282 89.5186 31.0637C89.6513 30.0333 89.7308 29.3031 89.7308 28.968H87.7308C87.7308 29.1449 87.6742 29.7267 87.5349 30.8083C87.4 31.8558 87.197 33.3051 86.9253 35.159L88.9042 35.449ZM89.7308 28.968C89.7308 28.1137 89.4666 27.3296 88.8619 26.7249L87.4476 28.1391C87.6109 28.3024 87.7308 28.5423 87.7308 28.968H89.7308ZM88.9181 26.7861C88.3641 26.1313 87.6138 25.808 86.7628 25.808V27.808C87.0637 27.808 87.2414 27.9007 87.3914 28.0779L88.9181 26.7861ZM86.7628 25.808C85.8056 25.808 84.9528 26.1441 84.2548 26.7985L85.6227 28.2575C85.9487 27.9519 86.3119 27.808 86.7628 27.808V25.808ZM84.2316 26.8209C83.565 27.4876 83.1994 28.3496 83.0819 29.3289L85.0676 29.5671C85.1421 28.9464 85.3525 28.5284 85.6459 28.2351L84.2316 26.8209ZM83.0843 29.3104L80.9243 44.8624L82.9052 45.1376L85.0652 29.5856L83.0843 29.3104ZM81.9148 44H72.6028V46H81.9148V44ZM73.593 45.1395L77.049 20.6115L75.0685 20.3325L71.6125 44.8605L73.593 45.1395ZM76.0588 21.472H83.1628V19.472H76.0588V21.472ZM82.1718 20.6059L82.6518 24.1579L84.6337 23.8901L84.1537 20.3381L82.1718 20.6059ZM84.466 24.5917C85.0026 23.8136 85.8908 23.004 87.1985 22.1829L86.135 20.4891C84.6907 21.396 83.5629 22.3784 82.8195 23.4563L84.466 24.5917ZM87.2124 22.174C88.4055 21.3971 89.8265 20.992 91.5148 20.992V18.992C89.491 18.992 87.68 19.4829 86.1211 20.498L87.2124 22.174ZM91.5148 20.992C93.132 20.992 94.3021 21.2934 95.1128 21.8L96.1728 20.104C94.9354 19.3306 93.3535 18.992 91.5148 18.992V20.992ZM95.1128 21.8C95.9401 22.3171 96.5603 23.0687 96.9686 24.1032L98.8289 23.3688C98.2772 21.9713 97.3934 20.8669 96.1728 20.104L95.1128 21.8ZM98.7065 24.3255C99.4907 23.2509 100.405 22.4428 101.446 21.8797L100.495 20.1203C99.1689 20.8372 98.0348 21.8531 97.091 23.1465L98.7065 24.3255ZM101.454 21.8752C102.488 21.3041 103.8 20.992 105.435 20.992V18.992C103.55 18.992 101.886 19.3519 100.487 20.1248L101.454 21.8752ZM138.994 22.824L138.316 23.5592L138.322 23.5647L138.328 23.5701L138.994 22.824ZM140.242 38.136L141.121 38.6123L141.121 38.6123L140.242 38.136ZM135.01 43.56L135.506 44.4283L135.515 44.4229L135.01 43.56ZM117.778 42.696L117.1 43.4312L117.106 43.4367L117.112 43.4421L117.778 42.696ZM116.338 27.912L117.242 28.339L117.244 28.3342L116.338 27.912ZM121.282 22.2L120.732 21.3643L120.727 21.3679L121.282 22.2ZM126.898 26.76L126.225 26.0201L126.225 26.0201L126.898 26.76ZM125.602 29.16L124.615 28.9956L124.615 28.9985L125.602 29.16ZM124.882 33.864L125.871 34.0054L125.872 34.0022L124.882 33.864ZM124.546 36.792L123.547 36.7394L123.546 36.7657V36.792H124.546ZM125.362 38.856L124.654 39.5631L124.654 39.5631L125.362 38.856ZM129.922 38.712L129.249 37.9721L129.24 37.9799L129.232 37.9879L129.922 38.712ZM131.218 36.312L132.204 36.4764L132.205 36.4687L132.206 36.461L131.218 36.312ZM131.746 32.808L132.734 32.957L132.736 32.9467L132.737 32.9363L131.746 32.808ZM132.274 28.728L133.265 28.8563L133.274 28.7924V28.728H132.274ZM131.458 26.712L130.693 27.3561L130.711 27.3779L130.73 27.3986L131.458 26.712ZM130.258 20.992C133.873 20.992 136.51 21.8943 138.316 23.5592L139.671 22.0888C137.381 19.9777 134.194 18.992 130.258 18.992V20.992ZM138.328 23.5701C140.165 25.2095 141.114 27.4339 141.114 30.36H143.114C143.114 26.9501 141.982 24.1505 139.659 22.0779L138.328 23.5701ZM141.114 30.36C141.114 33.0905 140.523 35.5161 139.362 37.6597L141.121 38.6123C142.456 36.1479 143.114 33.3895 143.114 30.36H141.114ZM139.362 37.6597C138.2 39.8047 136.585 41.4783 134.504 42.6971L135.515 44.4229C137.914 43.0177 139.787 41.0753 141.121 38.6123L139.362 37.6597ZM134.513 42.6918C132.44 43.8767 130.07 44.48 127.378 44.48V46.48C130.381 46.48 133.099 45.8033 135.506 44.4282L134.513 42.6918ZM127.378 44.48H126.658V46.48H127.378V44.48ZM126.658 44.48C122.97 44.48 120.281 43.5895 118.443 41.9499L117.112 43.4421C119.434 45.5145 122.665 46.48 126.658 46.48V44.48ZM118.455 41.9608C116.64 40.2869 115.706 38.0555 115.706 35.16H113.706C113.706 38.5365 114.819 41.3291 117.1 43.4312L118.455 41.9608ZM115.706 35.16C115.706 32.7809 116.216 30.5106 117.242 28.339L115.433 27.485C114.283 29.9214 113.706 32.4831 113.706 35.16H115.706ZM117.244 28.3342C118.252 26.1696 119.776 24.4055 121.836 23.032L120.727 21.3679C118.371 22.9385 116.599 24.9824 115.431 27.4898L117.244 28.3342ZM121.831 23.0357C123.878 21.6902 126.398 20.992 129.442 20.992V18.992C126.085 18.992 123.165 19.7658 120.732 21.3643L121.831 23.0357ZM129.442 20.992H130.258V18.992H129.442V20.992ZM129.394 24.8C128.187 24.8 127.115 25.2111 126.225 26.0201L127.57 27.4999C128.088 27.0289 128.68 26.8 129.394 26.8V24.8ZM126.225 26.0201C125.35 26.8149 124.811 27.8195 124.615 28.9956L126.588 29.3244C126.712 28.5805 127.037 27.9851 127.57 27.4999L126.225 26.0201ZM124.615 28.9985C124.326 30.7642 124.084 32.3402 123.891 33.7258L125.872 34.0022C126.063 32.6358 126.301 31.0758 126.588 29.3215L124.615 28.9985ZM123.892 33.7226C123.699 35.0693 123.581 36.0833 123.547 36.7394L125.544 36.8446C125.574 36.2847 125.68 35.3467 125.871 34.0054L123.892 33.7226ZM123.546 36.792C123.546 37.8654 123.907 38.8154 124.654 39.5631L126.069 38.1489C125.728 37.8086 125.546 37.3826 125.546 36.792H123.546ZM124.654 39.5631C125.402 40.3109 126.352 40.672 127.426 40.672V38.672C126.835 38.672 126.409 38.4891 126.069 38.1489L124.654 39.5631ZM127.426 40.672C128.655 40.672 129.74 40.2662 130.611 39.4361L129.232 37.9879C128.759 38.4378 128.18 38.672 127.426 38.672V40.672ZM130.594 39.4519C131.469 38.6571 132.008 37.6525 132.204 36.4764L130.231 36.1476C130.107 36.8915 129.782 37.4869 129.249 37.9721L130.594 39.4519ZM132.206 36.461L132.734 32.957L130.757 32.659L130.229 36.163L132.206 36.461ZM132.737 32.9363L133.265 28.8563L131.282 28.5997L130.754 32.6797L132.737 32.9363ZM133.274 28.728C133.274 27.6959 132.898 26.7805 132.185 26.0254L130.73 27.3986C131.105 27.7955 131.274 28.2241 131.274 28.728H133.274ZM132.222 26.0679C131.502 25.2129 130.523 24.8 129.394 24.8V26.8C129.992 26.8 130.389 26.9951 130.693 27.3561L132.222 26.0679ZM158.159 10.44L159.149 10.5785L159.309 9.44H158.159V10.44ZM157.199 17.304V18.304H158.069L158.189 17.4425L157.199 17.304ZM147.647 17.304L146.657 17.1655L146.497 18.304H147.647V17.304ZM148.607 10.44V9.44H147.737L147.617 10.3015L148.607 10.44ZM153.119 46.248L152.129 46.1079L152.129 46.1101L153.119 46.248ZM149.951 52.008L150.549 52.8097L150.549 52.8097L149.951 52.008ZM140.063 53.64L140.24 52.6557L140.226 52.6532L140.211 52.6511L140.063 53.64ZM137.039 52.92L136.049 52.7786L135.937 53.5626L136.675 53.8512L137.039 52.92ZM137.807 47.544L138.221 46.6336L137.006 46.0814L136.817 47.4026L137.807 47.544ZM139.247 47.928L139.464 46.9518L139.434 46.9451L139.403 46.9402L139.247 47.928ZM142.751 47.4L142.115 46.6281L142.111 46.6318L142.751 47.4ZM143.807 44.808L142.817 44.6693L142.816 44.6766L142.815 44.684L143.807 44.808ZM147.215 20.472V19.472H146.345L146.225 20.3333L147.215 20.472ZM156.767 20.472L157.757 20.6121L157.918 19.472H156.767V20.472ZM157.169 10.3015L156.209 17.1655L158.189 17.4425L159.149 10.5785L157.169 10.3015ZM157.199 16.304H147.647V18.304H157.199V16.304ZM148.637 17.4425L149.597 10.5785L147.617 10.3015L146.657 17.1655L148.637 17.4425ZM148.607 11.44H158.159V9.44H148.607V11.44ZM152.129 46.1101C151.807 48.4199 150.864 50.0802 149.353 51.2063L150.549 52.8097C152.558 51.3118 153.727 49.1321 154.109 46.3859L152.129 46.1101ZM149.353 51.2063C147.802 52.3629 145.801 52.976 143.279 52.976V54.976C146.133 54.976 148.58 54.2771 150.549 52.8097L149.353 51.2063ZM143.279 52.976C142.461 52.976 141.451 52.8732 140.24 52.6557L139.886 54.6243C141.171 54.8548 142.305 54.976 143.279 54.976V52.976ZM140.211 52.6511C138.965 52.4641 138.04 52.2378 137.403 51.9888L136.675 53.8512C137.51 54.1782 138.601 54.4319 139.915 54.6289L140.211 52.6511ZM138.029 53.0614L138.797 47.6854L136.817 47.4026L136.049 52.7786L138.029 53.0614ZM137.393 48.4544C137.861 48.667 138.44 48.813 139.091 48.9158L139.403 46.9402C138.838 46.851 138.457 46.741 138.221 46.6336L137.393 48.4544ZM139.03 48.9042C139.644 49.0405 140.202 49.12 140.687 49.12V47.12C140.404 47.12 140.002 47.0715 139.464 46.9518L139.03 48.9042ZM140.687 49.12C141.704 49.12 142.623 48.8085 143.391 48.1682L142.111 46.6318C141.727 46.9515 141.27 47.12 140.687 47.12V49.12ZM143.387 48.1719C144.238 47.4711 144.631 46.2763 144.799 44.932L142.815 44.684C142.663 45.8997 142.352 46.4329 142.115 46.6281L143.387 48.1719ZM144.797 44.9467L148.205 20.6107L146.225 20.3333L142.817 44.6693L144.797 44.9467ZM147.215 21.472H156.767V19.472H147.215V21.472ZM155.777 20.3319L152.129 46.1079L154.109 46.3881L157.757 20.6121L155.777 20.3319ZM172.36 10.44L173.35 10.5785L173.509 9.44H172.36V10.44ZM171.4 17.304V18.304H172.27L172.39 17.4425L171.4 17.304ZM161.944 17.304L160.954 17.1655L160.794 18.304H161.944V17.304ZM162.904 10.44V9.44H162.034L161.914 10.3015L162.904 10.44ZM170.968 20.472L171.958 20.6115L172.119 19.472H170.968V20.472ZM167.512 45V46H168.381L168.502 45.1395L167.512 45ZM158.104 45L157.113 44.8624L156.955 46H158.104V45ZM161.512 20.472V19.472H160.641L160.521 20.3344L161.512 20.472ZM171.37 10.3015L170.41 17.1655L172.39 17.4425L173.35 10.5785L171.37 10.3015ZM171.4 16.304H161.944V18.304H171.4V16.304ZM162.934 17.4425L163.894 10.5785L161.914 10.3015L160.954 17.1655L162.934 17.4425ZM162.904 11.44H172.36V9.44H162.904V11.44ZM169.978 20.3325L166.522 44.8605L168.502 45.1395L171.958 20.6115L169.978 20.3325ZM167.512 44H158.104V46H167.512V44ZM159.094 45.1376L162.502 20.6096L160.521 20.3344L157.113 44.8624L159.094 45.1376ZM161.512 21.472H170.968V19.472H161.512V21.472Z" fill="black"/>
</svg>
